<svg width="129" height="32" viewBox="0 0 129 32" fill="none" xmlns="http://www.w3.org/2000/svg">
<path d="M12.4955 2.66211H24.285L12.4955 16.1358H0.706055L12.4955 2.66211Z" fill="#1447E6"/>
<path d="M12.4961 16.1357H24.2856L12.4961 28.7673V16.1357Z" fill="#1447E6"/>
<path d="M61.2574 9.90332V13.4109H53.073V25.771H49.5654V15.6778C49.5654 12.4886 52.1507 9.90332 55.3399 9.90332H61.2574Z" fill="black"/>
<path d="M100.844 22.2634H107.525V9.90332H111.032V19.2748C111.032 22.8626 108.124 25.771 104.536 25.771H103.832C100.244 25.771 97.3359 22.8626 97.3359 19.2748V9.90332H100.844V22.2634Z" fill="black"/>
<path d="M38.876 22.2637H47.0605V25.7705H41.1426C37.9535 25.7705 35.3682 23.1852 35.3682 19.9961V5.89453H38.876V22.2637Z" fill="black"/>
<path d="M35.7021 13.4106L35.7021 9.90305L47.3941 9.90305L47.3941 13.4106L35.7021 13.4106Z" fill="black"/>
<path d="M81.3008 9.90332H94.8301V16.0943L84.1018 22.0252V22.4154H94.8301V25.771H81.3008V19.58L92.0291 13.6491V13.285H81.3008V9.90332Z" fill="black"/>
<path d="M70.7773 9.56885C72.4906 9.56889 73.9697 9.91908 75.2148 10.6187C76.4698 11.3182 77.4359 12.2924 78.1133 13.5415C78.7907 14.7808 79.1299 16.2254 79.1299 17.8745C79.1299 18.0843 79.1252 18.3096 79.1152 18.5493C79.1053 18.789 79.0902 18.9639 79.0703 19.0737H66.2373C66.3279 19.6162 66.4742 20.1116 66.6826 20.5581C67.0512 21.3376 67.5897 21.9372 68.2969 22.3569C69.014 22.7666 69.8854 22.9711 70.9111 22.9712C71.6084 22.9712 72.2117 22.9068 72.7197 22.7769C73.2277 22.6469 73.6412 22.4713 73.96 22.2515C74.2885 22.0217 74.533 21.7769 74.6924 21.5171C74.7638 21.4075 74.8225 21.2976 74.8691 21.188H78.8398C78.7362 21.7015 78.5343 22.2062 78.2334 22.7017C77.8549 23.3312 77.3219 23.9057 76.6348 24.4253C75.9474 24.935 75.1102 25.345 74.124 25.6548C73.1479 25.9546 72.0324 26.105 70.7773 26.105C69.074 26.105 67.5846 25.7547 66.3096 25.0552C65.0347 24.3557 64.0385 23.3814 63.3213 22.1323C62.614 20.883 62.2598 19.4533 62.2598 17.8442C62.2598 16.1952 62.6187 14.7505 63.3359 13.5112C64.0631 12.2721 65.0696 11.3082 66.3545 10.6187C67.6395 9.91909 69.1138 9.56885 70.7773 9.56885ZM70.8223 12.6567C69.866 12.6567 69.0334 12.8622 68.3262 13.272C67.629 13.6717 67.0867 14.2518 66.6982 15.0112C66.508 15.393 66.3651 15.8125 66.2705 16.27H75.0645C75.0197 15.7149 74.8716 15.1899 74.6172 14.6958C74.3084 14.0863 73.8403 13.5968 73.2129 13.2271C72.5854 12.8473 71.7884 12.6568 70.8223 12.6567Z" fill="black"/>
</svg>
