<svg width="112" height="32" viewBox="0 0 112 32" fill="none" xmlns="http://www.w3.org/2000/svg">
    <path d="M12.4955 2.66211H24.285L12.4955 16.1358H0.706055L12.4955 2.66211Z" fill="white" />
    <path d="M12.4956 16.1357H24.2851L12.4956 28.7673V16.1357Z" fill="white" />
    <path
        d="M61.2579 9.90356V13.4112H53.0735V25.7713H49.5659V15.678C49.5659 12.4889 52.1512 9.90356 55.3404 9.90356H61.2579Z"
        fill="white" />
    <path
        d="M100.844 22.2637H107.525V9.90356H111.033V19.275C111.033 22.8628 108.124 25.7713 104.537 25.7713H103.833C100.245 25.7713 97.3364 22.8628 97.3364 19.275V9.90356H100.844V22.2637Z"
        fill="white" />
    <path
        d="M38.8765 22.2639H47.061V25.7708H41.1431C37.9539 25.7707 35.3687 23.1855 35.3687 19.9963V5.89478H38.8765V22.2639Z"
        fill="white" />
    <path d="M35.7026 13.4109L35.7026 9.90329L47.3946 9.90329L47.3946 13.4109L35.7026 13.4109Z" fill="white" />
    <path
        d="M81.3013 9.90356H94.8306V16.0946L84.1023 22.0255V22.4156H94.8306V25.7713H81.3013V19.5803L92.0296 13.6494V13.2852H81.3013V9.90356Z"
        fill="white" />
    <path
        d="M70.7778 9.56909C72.4911 9.56913 73.9702 9.91933 75.2153 10.6189C76.4703 11.3184 77.4364 12.2926 78.1138 13.5417C78.7912 14.7811 79.1304 16.2257 79.1304 17.8748C79.1304 18.0846 79.1257 18.3098 79.1157 18.5496C79.1058 18.7892 79.0907 18.9641 79.0708 19.074H66.2378C66.3284 19.6164 66.4746 20.1118 66.6831 20.5583C67.0517 21.3378 67.5902 21.9374 68.2974 22.3572C69.0145 22.7668 69.8859 22.9714 70.9116 22.9714C71.6089 22.9714 72.2122 22.907 72.7202 22.7771C73.2282 22.6472 73.6417 22.4716 73.9604 22.2517C74.289 22.0219 74.5335 21.7771 74.6929 21.5173C74.7643 21.4077 74.823 21.2978 74.8696 21.1882H78.8403C78.7366 21.7017 78.5348 22.2064 78.2339 22.7019C77.8554 23.3314 77.3224 23.9059 76.6353 24.4255C75.9479 24.9353 75.1107 25.3452 74.1245 25.655C73.1484 25.9548 72.0328 26.1052 70.7778 26.1052C69.0745 26.1052 67.5851 25.755 66.3101 25.0554C65.0352 24.3559 64.039 23.3816 63.3218 22.1326C62.6145 20.8833 62.2603 19.4536 62.2603 17.8445C62.2603 16.1954 62.6192 14.7508 63.3364 13.5115C64.0636 12.2724 65.0701 11.3084 66.355 10.6189C67.64 9.91933 69.1143 9.56909 70.7778 9.56909ZM70.8228 12.657C69.8664 12.657 69.0339 12.8624 68.3267 13.2722C67.6295 13.672 67.0872 14.252 66.6987 15.0115C66.5085 15.3933 66.3656 15.8127 66.271 16.2703H75.0649C75.0201 15.7151 74.8721 15.1901 74.6177 14.696C74.3089 14.0866 73.8408 13.597 73.2134 13.2273C72.5859 12.8476 71.7888 12.657 70.8228 12.657Z"
        fill="white" />
</svg>
