<svg width="197" height="48" viewBox="0 0 197 48" fill="none" xmlns="http://www.w3.org/2000/svg">
<g clip-path="url(#clip0_313_120)">
<path d="M14.7262 11.1147C6.59314 11.1147 0 17.7078 0 25.8408C0 33.9739 6.59314 40.567 14.7262 40.567V11.1147Z" fill="#060606"/>
<path d="M18.1132 7.43311C26.2463 7.43311 32.8394 14.0262 32.8394 22.1593C32.8394 30.2923 26.2463 36.8855 18.1132 36.8855V7.43311Z" fill="#060606"/>
<path d="M14.7262 11.1147C6.59314 11.1147 0 17.7078 0 25.8408C0 33.9739 6.59314 40.567 14.7262 40.567C22.2612 40.567 28.4744 34.9079 29.3474 27.608H28.1601C27.2942 34.2554 21.6097 39.3889 14.7262 39.3889C7.24378 39.3889 1.17809 33.3232 1.17809 25.8408C1.17809 18.3584 7.24378 12.2927 14.7262 12.2927V11.1147Z" fill="#060606"/>
<path d="M18.1046 7.44167L18.8683 8.1891L13.9443 13.2617L13.2118 12.5283L18.1046 7.44167Z" fill="#060606"/>
<path d="M18.9827 34.6851L19.7465 35.4327L14.9039 40.4238L14.0899 39.7717L18.9827 34.6851Z" fill="#060606"/>
<path d="M47.3916 16.6832C50.7904 16.6832 53.3027 18.7225 53.3027 23.4514V31.8451H51.7953V23.5105C51.7953 19.9638 50.0516 18.0723 47.1551 18.0723C43.9631 18.0723 41.9829 20.5549 41.9829 24.4563V31.8451H40.4756V16.8605H41.776L42.0125 20.0525C42.8696 18.1018 44.6429 16.6832 47.3916 16.6832ZM61.5505 32.0225C57.2945 32.0225 54.3685 28.9487 54.3685 24.2494C54.3685 19.8161 57.1763 16.6832 61.2845 16.6832C65.304 16.6832 68.0527 19.2841 68.2004 23.7469C68.2004 23.9243 68.1709 24.1607 68.1709 24.3676H55.9349V24.6336C55.994 28.1211 58.0925 30.6629 61.4322 30.6629C63.8853 30.6629 65.8656 29.2147 66.4567 26.8798H67.9936C67.3433 29.8945 64.8311 32.0225 61.5505 32.0225ZM56.0532 23.0967H66.5749C66.3385 19.8161 64.24 18.0132 61.314 18.0132C58.5654 18.0132 56.2896 20.0525 56.0532 23.0967ZM75.6427 16.6832C79.3962 16.6832 81.4947 18.6043 81.4947 21.9145V31.8451H80.1942L80.0464 28.8305C79.1598 30.6629 77.416 32.0225 74.4309 32.0225C71.1798 32.0225 69.0518 30.3969 69.0518 27.7665C69.0518 24.8996 71.1502 23.274 74.9038 23.274H79.9873V21.8258C79.9873 19.4909 78.3913 18.0132 75.5836 18.0132C73.1305 18.0132 71.5049 19.2249 71.1207 21.0574H69.6134C69.9976 18.3383 72.3029 16.6832 75.6427 16.6832ZM79.9873 25.9931V24.5745H74.756C72.096 24.5745 70.5887 25.668 70.5887 27.7074C70.5887 29.5102 72.096 30.722 74.5196 30.722C77.9776 30.722 79.8987 28.7418 79.9873 25.9931ZM89.4951 16.8605H90.2931V18.3087H89.1996C85.6825 18.3087 84.8845 21.2052 84.8845 24.2494V31.8451H83.3772V16.8605H84.6776L84.9141 19.8456C85.5347 18.1905 86.7169 16.8605 89.4951 16.8605ZM98.5422 27.9142V18.9885H95.8231V16.7718H98.5422V12.5454H100.966V16.7718H104.867V18.9885H100.966V27.8847C100.966 29.1556 101.409 29.6285 102.71 29.6285H105.104V31.8451H102.473C99.5766 31.8451 98.5422 30.5742 98.5422 27.9142ZM113.292 16.7718H113.972V19.1363H112.76C109.597 19.1363 108.74 21.7667 108.74 24.1607V31.8451H106.317V16.7718H108.415L108.74 19.0476C109.45 17.8949 110.602 16.7718 113.292 16.7718ZM121.265 32.0225C116.743 32.0225 113.788 28.9191 113.788 24.3085C113.788 19.7274 116.684 16.5945 120.94 16.5945C125.196 16.5945 127.974 19.2841 128.093 23.7469C128.093 24.072 128.063 24.4267 128.034 24.7814H116.33V24.9883C116.418 27.8551 118.221 29.8649 121.088 29.8649C123.216 29.8649 124.871 28.7418 125.374 26.7911H127.827C127.236 29.8058 124.753 32.0225 121.265 32.0225ZM116.477 22.7716H125.492C125.255 20.1707 123.482 18.7225 120.97 18.7225C118.753 18.7225 116.714 20.3185 116.477 22.7716ZM136.267 16.5945C140.109 16.5945 142.326 18.5156 142.326 22.0327V31.8451H140.227L140.02 29.4807C139.075 30.8402 137.567 32.0225 134.966 32.0225C131.656 32.0225 129.41 30.3673 129.41 27.6187C129.41 24.604 131.508 22.9194 135.469 22.9194H139.902V21.8849C139.902 19.9343 138.513 18.7521 136.149 18.7521C134.021 18.7521 132.602 19.7569 132.306 21.2938H129.883C130.238 18.3383 132.632 16.5945 136.267 16.5945ZM139.902 25.6976V24.9587H135.232C133.075 24.9587 131.863 25.7567 131.863 27.4709C131.863 28.9487 133.134 29.9536 135.144 29.9536C138.158 29.9536 139.902 28.2098 139.902 25.6976ZM143.935 26.8798H146.417C146.506 28.6531 148.072 29.9536 150.585 29.9536C152.713 29.9536 154.22 29.0374 154.22 27.6482C154.22 25.7567 152.565 25.6089 150.319 25.3429C146.949 24.9291 144.26 24.2494 144.26 21.1165C144.26 18.3678 146.772 16.565 150.171 16.5945C153.599 16.6241 156.082 18.2201 156.318 21.3529H153.836C153.658 19.8161 152.24 18.6634 150.171 18.6634C148.072 18.6634 146.654 19.5501 146.654 20.9392C146.654 22.5943 148.25 22.8012 150.437 23.0672C153.865 23.4809 156.614 24.1312 156.614 27.4709C156.614 30.2787 153.924 32.0225 150.585 32.0225C146.683 32.0225 143.994 30.19 143.935 26.8798ZM168.969 24.3085V16.7718H171.392V31.8451H169.294L168.969 29.8354C168.082 30.9585 166.634 32.0225 164.151 32.0225C160.841 32.0225 158.211 30.1605 158.211 25.1656V16.7718H160.634V25.0178C160.634 28.1507 162.053 29.8058 164.565 29.8058C167.314 29.8058 168.969 27.7074 168.969 24.3085ZM180.785 16.7718H181.464V19.1363H180.253C177.09 19.1363 176.233 21.7667 176.233 24.1607V31.8451H173.809V16.7718H175.908L176.233 19.0476C176.942 17.8949 178.095 16.7718 180.785 16.7718ZM194.116 24.3085V16.7718H196.54V31.5791C196.54 35.3327 194.441 37.9335 189.713 37.9335C186.107 37.9335 183.683 36.2193 183.358 32.9682H185.841C186.255 34.8007 187.673 35.776 189.919 35.776C192.579 35.776 194.116 34.2982 194.116 31.5791V29.392C193.2 30.7811 191.87 31.9338 189.417 31.9338C186.107 31.9338 183.417 30.1309 183.417 25.2838V16.7718H185.841V25.136C185.841 28.1211 187.289 29.7171 189.831 29.7171C192.491 29.7171 194.116 27.6482 194.116 24.3085Z" fill="#060606"/>
</g>
<defs>
<clipPath id="clip0_313_120">
<rect width="196.322" height="48" rx="14.8661" fill="white"/>
</clipPath>
</defs>
</svg>
