<svg width="139" height="40" viewBox="0 0 139 40" fill="none" xmlns="http://www.w3.org/2000/svg">
    <path d="M15.6197 3.32764H30.3565L15.6197 20.1697H0.882812L15.6197 3.32764Z" fill="#1447E6" />
    <path d="M15.6201 20.1694H30.357L15.6201 35.9589V20.1694Z" fill="#1447E6" />
    <path
        d="M76.573 12.3794V16.7639H66.3425V32.214H61.958V19.5974C61.958 15.611 65.1896 12.3794 69.1761 12.3794H76.573Z"
        fill="black" />
    <path
        d="M126.055 27.8295H134.407V12.3794H138.791V24.0937C138.791 28.5784 135.156 32.214 130.671 32.214H129.791C125.306 32.214 121.671 28.5784 121.671 24.0937V12.3794H126.055V27.8295Z"
        fill="black" />
    <path
        d="M48.5957 27.8296H58.8262V32.2144H51.4287C47.4426 32.2142 44.2112 28.9827 44.2109 24.9966V7.36865H48.5957V27.8296Z"
        fill="black" />
    <path d="M44.6289 16.7637L44.6289 12.3792L59.2439 12.3792L59.2439 16.7637L44.6289 16.7637Z" fill="black" />
    <path
        d="M101.627 12.3794H118.539V20.1182L105.128 27.5318V28.0195H118.539V32.214H101.627V24.4753L115.037 17.0617V16.6064H101.627V12.3794Z"
        fill="black" />
    <path
        d="M88.4717 11.9614C90.6134 11.9614 92.463 12.3984 94.0195 13.2729C95.5883 14.1474 96.7959 15.3658 97.6426 16.9272C98.4893 18.4764 98.9131 20.2819 98.9131 22.3433C98.9131 22.6055 98.907 22.8864 98.8945 23.186C98.8821 23.4859 98.8628 23.7049 98.8379 23.8423H82.7959C82.9091 24.5205 83.0939 25.1394 83.3545 25.6978C83.8152 26.672 84.4871 27.4221 85.3711 27.9468C86.2676 28.4589 87.3572 28.7143 88.6396 28.7144C89.5113 28.7144 90.2653 28.6336 90.9004 28.4712C91.5353 28.3088 92.0518 28.0897 92.4502 27.8149C92.861 27.5277 93.166 27.2217 93.3652 26.897C93.4545 26.7599 93.5286 26.6229 93.5869 26.4858H98.5508C98.4212 27.1276 98.1681 27.7582 97.792 28.3774C97.3188 29.1644 96.653 29.8831 95.7939 30.5327C94.9348 31.1699 93.888 31.6816 92.6553 32.0688C91.4351 32.4436 90.0405 32.6313 88.4717 32.6313C86.3424 32.6313 84.4805 32.1943 82.8867 31.3198C81.293 30.4453 80.0479 29.227 79.1514 27.6655C78.2673 26.104 77.8253 24.3173 77.8252 22.3062C77.8252 20.2449 78.2735 18.4392 79.1699 16.8901C80.0789 15.341 81.3371 14.135 82.9434 13.2729C84.5496 12.3986 86.3924 11.9614 88.4717 11.9614ZM88.5273 15.8218C87.3322 15.8218 86.2922 16.0782 85.4082 16.5903C84.5368 17.09 83.8586 17.8148 83.373 18.7642C83.1351 19.2416 82.9572 19.7662 82.8389 20.3384H93.8311C93.7751 19.6444 93.5905 18.9883 93.2725 18.3706C92.8865 17.6086 92.301 16.9959 91.5166 16.5337C90.7321 16.059 89.7352 15.8218 88.5273 15.8218Z"
        fill="black" />
</svg>
