<svg width="83" height="10" viewBox="0 0 83 10" fill="none" xmlns="http://www.w3.org/2000/svg">
<path d="M5.38108 0.0390625C4.3315 0.0390625 3.56841 0.286997 2.91919 0.859999L1.7741 1.85173C1.6786 1.92795 1.4876 1.9858 1.35445 1.87102C1.22039 1.75623 1.20202 1.6038 1.31589 1.45137L1.92654 0.535849C2.02204 0.401781 1.94582 0.230981 1.7741 0.230981H0.304867C0.13315 0.230981 0 0.36505 0 0.535849V9.46698C0 9.63869 0.134068 9.77184 0.304867 9.77184H1.83104C2.00275 9.77184 2.1359 9.63778 2.1359 9.46698V4.42933C2.1359 2.12079 4.06336 1.75807 4.7888 1.75807C6.33425 1.75807 6.88797 2.86459 6.88797 3.70481V9.4679C6.88797 9.63961 7.02204 9.77276 7.19284 9.77276H8.71901C8.89072 9.77276 9.02387 9.63869 9.02387 9.4679V3.51381C9.02387 1.37699 7.63085 0.040898 5.37925 0.040898L5.38108 0.0390625Z" fill="black"/>
<path d="M15.2461 0C12.2883 0 10.3994 1.81267 10.3994 4.27456V5.62993C10.3994 8.22497 12.2883 10 15.2461 10C17.8604 10 19.6923 8.64463 19.8833 6.81267C19.9026 6.62167 19.7686 6.48852 19.5785 6.48852H18.09C17.9559 6.48852 17.842 6.56474 17.8035 6.69881C17.6125 7.30946 16.7162 8.22498 15.2461 8.22498C13.7759 8.22498 12.4031 7.1561 12.4215 5.62993L12.4407 3.93205C12.46 2.65381 13.7961 1.77594 15.2461 1.77594C16.5629 1.77594 17.8411 2.52066 17.9743 3.74196C17.9853 3.88338 17.8879 4.01102 17.7493 4.03765L13.471 4.86777C13.2993 4.90634 13.1662 5.05877 13.1662 5.24885V5.26813C13.1662 5.43985 13.3379 5.59229 13.5858 5.59229H19.7309C19.8999 5.59229 20.0358 5.45546 20.0358 5.28742V4.0854C20.0358 1.81451 18.0698 0.00183834 15.2461 0.00183834V0Z" fill="black"/>
<path d="M25.8939 0C23.5082 0 21.4476 1.39302 21.4476 3.22498C21.4476 3.37741 21.5817 3.4922 21.7525 3.4922H23.2979C23.4503 3.4922 23.5651 3.37741 23.5844 3.22498C23.7368 2.38567 24.7488 1.77502 25.836 1.77502C27.1335 1.77502 28.0114 2.57668 28.0114 3.95041V5.61065C28.0114 7.30854 26.7515 8.16804 25.1868 8.16804C23.9655 8.16804 23.2593 7.70982 23.2593 6.96602C23.2593 6.3168 23.6028 5.764 25.0151 5.43985L27.0573 4.88613C27.2676 4.8292 27.3438 4.65657 27.3053 4.46648C27.286 4.31405 27.1152 4.23691 26.9618 4.23691H24.8443C23.0509 4.23691 21.2373 5.382 21.2373 7.06061V7.32782C21.2373 9.04499 22.859 9.94215 24.7102 9.94215C25.8929 9.94215 26.9049 9.48393 27.5339 8.95041L28.4696 8.14876C28.6221 8.01469 28.7745 8.01469 28.9086 8.14876C29.0233 8.26354 28.9848 8.43526 28.8893 8.56841L28.3172 9.46556C28.2217 9.59963 28.2979 9.77043 28.4696 9.77043H29.8434C30.0151 9.77043 30.1482 9.63636 30.1482 9.46556V3.68319C30.1482 1.47015 28.5642 0 25.8929 0H25.8939Z" fill="black"/>
<path d="M38.3903 0.234375H36.2535C35.5097 0.234375 34.7843 0.692595 34.2691 1.13153L33.4298 1.85697C33.3343 1.93318 33.1626 1.99103 33.0478 1.89553C32.9137 1.80003 32.8568 1.60903 32.9716 1.4566L33.5822 0.541081C33.6777 0.407013 33.6015 0.236213 33.4298 0.236213H31.9982C31.8265 0.236213 31.6934 0.370282 31.6934 0.541081V9.47221C31.6934 9.64392 31.8274 9.77707 31.9982 9.77707H33.563C33.7347 9.77707 33.8678 9.64301 33.8678 9.47221V4.89278C33.8678 2.92676 34.6695 2.0498 36.4059 2.0498H38.3903C38.562 2.0498 38.6952 1.91573 38.6952 1.74494V0.542916C38.6952 0.371199 38.5611 0.238049 38.3903 0.238049V0.234375Z" fill="black"/>
<path d="M41.3466 0.234375H42.6726C42.8204 0.234375 42.9352 0.349161 42.9352 0.497003V9.50251C42.9352 9.65035 42.8204 9.76514 42.6726 9.76514H41.3466C41.1988 9.76514 41.084 9.65035 41.084 9.50251V0.497003C41.084 0.349161 41.1988 0.234375 41.3466 0.234375Z" fill="#FB4D01"/>
<path d="M50.6737 5.15076V9.50521C50.6737 9.65305 50.5662 9.76784 50.4111 9.76784H49.119C48.9712 9.76784 48.8564 9.65305 48.8564 9.50521V5.50062C48.8564 4.5851 48.4597 4.0874 47.6921 4.0874C46.9244 4.0874 46.1503 4.5649 46.1503 5.88446V9.50521C46.1503 9.65305 46.0355 9.76784 45.8876 9.76784H44.5883C44.4404 9.76784 44.333 9.65305 44.333 9.50521V3.12413C44.333 2.97629 44.4404 2.8615 44.5883 2.8615H45.5773C45.7453 2.8615 45.8261 2.92854 45.8867 3.04332L46.1292 3.52082C46.1558 3.575 46.2035 3.58143 46.2439 3.54103C46.6682 3.09016 47.3541 2.67969 48.31 2.67969C49.7572 2.67969 50.6728 3.54837 50.6728 5.14984L50.6737 5.15076Z" fill="#FB4D01"/>
<path d="M52.4031 4.32842H51.4068C51.2792 4.32842 51.1846 4.22741 51.1846 4.1062V3.10345C51.1846 2.98224 51.2792 2.88122 51.4068 2.88122H51.8843C52.3021 2.88122 52.5712 2.6388 52.5712 2.1613V1.15854C52.5712 1.01713 52.6786 0.902344 52.8264 0.902344H54.0652C54.213 0.902344 54.3205 1.01713 54.3205 1.15854V2.78021C54.3205 2.83439 54.3673 2.88122 54.4215 2.88122H55.8283C55.9559 2.88122 56.0569 2.98224 56.0569 3.10345V4.1062C56.0569 4.22741 55.9559 4.32842 55.8283 4.32842H54.4215C54.3673 4.32842 54.3205 4.37525 54.3205 4.42943V7.53871C54.3205 7.98315 54.5629 8.2118 55.0404 8.2118H55.6593C55.8007 8.2118 55.9017 8.31281 55.9017 8.44779V9.51116C55.9017 9.64614 55.8072 9.74715 55.6795 9.74715H54.7107C53.2029 9.74715 52.5032 9.14844 52.5032 7.66083V4.43035C52.5032 4.37617 52.4564 4.32934 52.4022 4.32934L52.4031 4.32842Z" fill="#FB4D01"/>
<path d="M62.869 6.69713H58.2318C58.1849 6.69713 58.1509 6.73111 58.1509 6.77794C58.1509 7.79447 58.8038 8.54838 59.847 8.54838C60.6551 8.54838 61.139 8.0975 61.4485 7.62C61.5293 7.49879 61.6771 7.47216 61.7855 7.53919L62.6606 8.12505C62.768 8.19208 62.802 8.3335 62.7276 8.45471C62.2501 9.20218 61.3346 9.94874 59.8002 9.94874C57.6799 9.94874 56.3135 8.49511 56.3135 6.30779C56.3135 4.12046 57.7138 2.67969 59.7331 2.67969C61.7524 2.67969 63.105 4.16087 63.105 6.13883V6.45563C63.105 6.59061 63.004 6.69805 62.869 6.69805V6.69713ZM58.2914 5.48501H61.2125C61.2593 5.48501 61.2868 5.45838 61.2868 5.41063C61.2868 4.56215 60.6542 3.97721 59.746 3.97721C58.8378 3.97721 58.218 4.56949 58.218 5.41063C58.218 5.45746 58.2446 5.48501 58.2924 5.48501H58.2914Z" fill="#FB4D01"/>
<path d="M70.2928 5.15076V9.50521C70.2928 9.65305 70.1854 9.76784 70.0302 9.76784H68.7382C68.5903 9.76784 68.4756 9.65305 68.4756 9.50521V5.50062C68.4756 4.5851 68.0789 4.0874 67.3112 4.0874C66.5435 4.0874 65.7694 4.5649 65.7694 5.88446V9.50521C65.7694 9.65305 65.6546 9.76784 65.5068 9.76784H64.2074C64.0596 9.76784 63.9521 9.65305 63.9521 9.50521V3.12413C63.9521 2.97629 64.0596 2.8615 64.2074 2.8615H65.1964C65.3645 2.8615 65.4453 2.92854 65.5059 3.04332L65.7483 3.52082C65.7749 3.575 65.8227 3.58143 65.8631 3.54103C66.2873 3.09016 66.9733 2.67969 67.9292 2.67969C69.3764 2.67969 70.2919 3.54837 70.2919 5.14984L70.2928 5.15076Z" fill="#FB4D01"/>
<path d="M72.0232 4.32842H71.0269C70.8993 4.32842 70.8047 4.22741 70.8047 4.1062V3.10345C70.8047 2.98224 70.8993 2.88122 71.0269 2.88122H71.5044C71.9222 2.88122 72.1913 2.6388 72.1913 2.1613V1.15854C72.1913 1.01713 72.2987 0.902344 72.4466 0.902344H73.6853C73.8332 0.902344 73.9406 1.01713 73.9406 1.15854V2.78021C73.9406 2.83439 73.9874 2.88122 74.0416 2.88122H75.4484C75.576 2.88122 75.677 2.98224 75.677 3.10345V4.1062C75.677 4.22741 75.576 4.32842 75.4484 4.32842H74.0416C73.9874 4.32842 73.9406 4.37525 73.9406 4.42943V7.53871C73.9406 7.98315 74.183 8.2118 74.6605 8.2118H75.2794C75.4208 8.2118 75.5219 8.31281 75.5219 8.44779V9.51116C75.5219 9.64614 75.4273 9.74715 75.2996 9.74715H74.3309C72.823 9.74715 72.1233 9.14844 72.1233 7.66083V4.43035C72.1233 4.37617 72.0765 4.32934 72.0223 4.32934L72.0232 4.32842Z" fill="#FB4D01"/>
<path d="M81.9272 4.35554C81.9741 4.47032 81.9135 4.61174 81.7996 4.65857L80.817 5.04884C80.7023 5.08924 80.5682 5.03506 80.5204 4.9212C80.3451 4.47032 79.8336 3.99282 79.0466 3.99282C78.3671 3.99282 77.9024 4.30228 77.9024 4.71275C77.9024 5.0222 78.1311 5.25086 78.5893 5.35187L80.0494 5.68795C81.4764 6.01118 82.0622 6.69714 82.0622 7.72101C82.0622 9.24902 80.6821 9.94232 79.0742 9.94232C77.3441 9.94232 76.3552 9.0874 75.9777 8.01761C75.9309 7.8964 75.9915 7.76141 76.1127 7.71458L77.1219 7.35829C77.2431 7.31789 77.3781 7.3785 77.4249 7.49971C77.694 8.24718 78.2734 8.6301 79.0668 8.6301C79.8602 8.6301 80.3258 8.29401 80.3258 7.80182C80.3258 7.44553 80.0365 7.1627 79.5177 7.04149L78.1247 6.72469C76.8795 6.44186 76.1862 5.80917 76.1862 4.76601C76.1862 3.48685 77.4314 2.67969 79.053 2.67969C80.6747 2.67969 81.6306 3.56123 81.9272 4.35554Z" fill="#FB4D01"/>
</svg>
